G04*
G04 #@! TF.GenerationSoftware,Altium Limited,Altium Designer,26.6.0 (10)*
G04*
G04 Layer_Color=8388736*
G04 Board_Origin=0|0*
%FSLAX44Y44*%
%MOMM*%
G71*
G04*
G04 #@! TF.SameCoordinates,D4BF0006-353E-4B22-8A64-B0559F059E99*
G04*
G04*
G04 #@! TF.FilePolarity,Negative*
G04*
G01*
G75*
%ADD12R,0.6680X0.6426*%
%ADD13R,1.1024X2.1006*%
%ADD14R,2.6010X1.2014*%
%ADD15R,2.4409X3.7008*%
%ADD16C,1.7526*%
%ADD17C,1.6256*%
D12*
X916229Y1294867D02*
D03*
X907567D02*
D03*
X913638Y1362710D02*
D03*
X905002D02*
D03*
X913638Y1404620D02*
D03*
X905002D02*
D03*
X1373378Y1408430D02*
D03*
X1364742D02*
D03*
X1374648Y1358900D02*
D03*
X1366012D02*
D03*
X1368298Y1290320D02*
D03*
X1359662D02*
D03*
X1215898Y1159510D02*
D03*
X1207262D02*
D03*
X1120648D02*
D03*
X1112012D02*
D03*
X1053338Y1154430D02*
D03*
X1044702D02*
D03*
D13*
X1506372Y1184910D02*
D03*
X1460348D02*
D03*
X1422552Y1182370D02*
D03*
X1376528D02*
D03*
D14*
X1176503Y962508D02*
D03*
Y985520D02*
D03*
Y1008532D02*
D03*
D15*
X1117117Y985520D02*
D03*
D16*
X1358290D02*
D03*
X1283310D02*
D03*
X1487830Y995680D02*
D03*
X1412850D02*
D03*
X1499260Y915670D02*
D03*
X1424280D02*
D03*
X1497990Y853440D02*
D03*
X1423010D02*
D03*
X993140Y1408430D02*
D03*
X967740D02*
D03*
X993140Y1347470D02*
D03*
X967740D02*
D03*
X999490Y1286510D02*
D03*
X974090D02*
D03*
X1049858Y1214577D02*
D03*
X1024458D02*
D03*
X1134389D02*
D03*
X1108989D02*
D03*
X1215390Y1212850D02*
D03*
X1189990D02*
D03*
X1442720Y1413510D02*
D03*
X1417320D02*
D03*
X1438910Y1360170D02*
D03*
X1413510D02*
D03*
X1436370Y1290320D02*
D03*
X1410970D02*
D03*
D17*
X1269213Y1088390D02*
D03*
X1289228D02*
D03*
X1309218D02*
D03*
X1329207D02*
D03*
X1349223D02*
D03*
X1369212D02*
D03*
X1389228D02*
D03*
X1409217D02*
D03*
X1429207D02*
D03*
X1449222D02*
D03*
X1469212D02*
D03*
X1489227D02*
D03*
M02*
