G04*
G04 #@! TF.GenerationSoftware,Altium Limited,Altium Designer,26.6.0 (10)*
G04*
G04 Layer_Color=0*
G04 Board_Origin=0|0*
%FSLAX44Y44*%
%MOMM*%
G71*
G04*
G04 #@! TF.SameCoordinates,D4BF0006-353E-4B22-8A64-B0559F059E99*
G04*
G04*
G04 #@! TF.FilePolarity,Positive*
G04*
G01*
G75*
%ADD25C,0.0254*%
G36*
X1486865Y1175918D02*
X1486764Y1175106D01*
X1486484Y1174344D01*
X1486052Y1173658D01*
X1485443Y1173099D01*
X1484757Y1172693D01*
X1483970Y1172464D01*
X1483157Y1172413D01*
X1482344Y1172566D01*
X1481607Y1172870D01*
X1480947Y1173353D01*
X1480439Y1173988D01*
X1480083Y1174725D01*
X1479880Y1175512D01*
Y1176325D01*
X1480083Y1177112D01*
X1480439Y1177823D01*
X1480947Y1178458D01*
X1481607Y1178941D01*
X1482344Y1179271D01*
X1483157Y1179398D01*
X1483970Y1179347D01*
X1484757Y1179119D01*
X1485443Y1178712D01*
X1486052Y1178154D01*
X1486484Y1177493D01*
X1486764Y1176706D01*
X1486865Y1175918D01*
D01*
D02*
G37*
G36*
Y1193902D02*
X1486764Y1193114D01*
X1486484Y1192327D01*
X1486052Y1191666D01*
X1485443Y1191108D01*
X1484757Y1190701D01*
X1483970Y1190473D01*
X1483157Y1190422D01*
X1482344Y1190549D01*
X1481607Y1190879D01*
X1480947Y1191362D01*
X1480439Y1191997D01*
X1480083Y1192708D01*
X1479880Y1193495D01*
Y1194308D01*
X1480083Y1195095D01*
X1480439Y1195832D01*
X1480947Y1196467D01*
X1481607Y1196950D01*
X1482344Y1197254D01*
X1483157Y1197407D01*
X1483970Y1197356D01*
X1484757Y1197127D01*
X1485443Y1196721D01*
X1486052Y1196162D01*
X1486484Y1195476D01*
X1486764Y1194714D01*
X1486865Y1193902D01*
D01*
D02*
G37*
G36*
X1403045Y1173378D02*
X1402944Y1172566D01*
X1402664Y1171804D01*
X1402232Y1171118D01*
X1401623Y1170559D01*
X1400937Y1170153D01*
X1400150Y1169924D01*
X1399337Y1169873D01*
X1398524Y1170026D01*
X1397787Y1170330D01*
X1397127Y1170813D01*
X1396619Y1171448D01*
X1396263Y1172185D01*
X1396060Y1172972D01*
Y1173785D01*
X1396263Y1174572D01*
X1396619Y1175283D01*
X1397127Y1175918D01*
X1397787Y1176401D01*
X1398524Y1176731D01*
X1399337Y1176858D01*
X1400150Y1176807D01*
X1400937Y1176579D01*
X1401623Y1176172D01*
X1402232Y1175614D01*
X1402664Y1174953D01*
X1402944Y1174166D01*
X1403045Y1173378D01*
D01*
D02*
G37*
G36*
Y1191362D02*
X1402944Y1190574D01*
X1402664Y1189787D01*
X1402232Y1189126D01*
X1401623Y1188568D01*
X1400937Y1188161D01*
X1400150Y1187933D01*
X1399337Y1187882D01*
X1398524Y1188009D01*
X1397787Y1188339D01*
X1397127Y1188822D01*
X1396619Y1189457D01*
X1396263Y1190168D01*
X1396060Y1190955D01*
Y1191768D01*
X1396263Y1192555D01*
X1396619Y1193292D01*
X1397127Y1193927D01*
X1397787Y1194410D01*
X1398524Y1194714D01*
X1399337Y1194867D01*
X1400150Y1194816D01*
X1400937Y1194587D01*
X1401623Y1194181D01*
X1402232Y1193622D01*
X1402664Y1192936D01*
X1402944Y1192174D01*
X1403045Y1191362D01*
D01*
D02*
G37*
D25*
X770890Y1446530D02*
Y764540D01*
X1706880D01*
Y1446530D01*
X770890D01*
M02*
